<svg id="visual" viewBox="0 0 768 1024" width="768" height="1024" xmlns="http://www.w3.org/2000/svg" xmlns:xlink="http://www.w3.org/1999/xlink" version="1.1"><rect x="0" y="0" width="768" height="1024" fill="#c3d4ee"></rect><defs><linearGradient id="grad1_0" x1="0%" y1="0%" x2="100%" y2="100%"><stop offset="30%" stop-color="#c3d4ee" stop-opacity="1"></stop><stop offset="70%" stop-color="#c3d4ee" stop-opacity="1"></stop></linearGradient></defs><defs><linearGradient id="grad2_0" x1="0%" y1="0%" x2="100%" y2="100%"><stop offset="30%" stop-color="#c3d4ee" stop-opacity="1"></stop><stop offset="70%" stop-color="#c3d4ee" stop-opacity="1"></stop></linearGradient></defs><g transform="translate(768, 0)"><path d="M0 192C-20.1 179.6 -40.2 167.3 -66.6 160.8C-92.9 154.2 -125.5 153.5 -135.8 135.8C-146 118 -133.9 83.3 -139.5 57.8C-145.2 32.3 -168.6 16.2 -192 0L0 0Z" fill="#4d53b3"></path></g><g transform="translate(0, 1024)"><path d="M0 -192C25.5 -190.2 51 -188.4 73.5 -177.4C95.9 -166.3 115.3 -146.1 124.5 -124.5C133.7 -102.8 132.7 -79.9 142.3 -58.9C151.8 -38 171.9 -19 192 0L0 0Z" fill="#4d53b3"></path></g></svg>