<svg id="visual" viewBox="0 0 1920 1080" width="1920" height="1080" xmlns="http://www.w3.org/2000/svg" xmlns:xlink="http://www.w3.org/1999/xlink" version="1.1"><rect x="0" y="0" width="1920" height="1080" fill="#c3d4ee"></rect><defs><linearGradient id="grad1_0" x1="43.8%" y1="0%" x2="100%" y2="100%"><stop offset="14.444444444444446%" stop-color="#c3d4ee" stop-opacity="1"></stop><stop offset="85.55555555555554%" stop-color="#c3d4ee" stop-opacity="1"></stop></linearGradient></defs><defs><linearGradient id="grad2_0" x1="0%" y1="0%" x2="56.3%" y2="100%"><stop offset="14.444444444444446%" stop-color="#c3d4ee" stop-opacity="1"></stop><stop offset="85.55555555555554%" stop-color="#c3d4ee" stop-opacity="1"></stop></linearGradient></defs><g transform="translate(1920, 0)"><path d="M0 324C-42.7 311.8 -85.4 299.6 -114 275.3C-142.7 251 -157.4 214.5 -190.2 190.2C-223 165.9 -274 153.7 -299.3 124C-324.7 94.3 -324.3 47.2 -324 0L0 0Z" fill="#4d53b3"></path></g><g transform="translate(0, 1080)"><path d="M0 -324C24.7 -278.6 49.4 -233.1 93 -224.5C136.6 -215.9 199.1 -244.1 229.1 -229.1C259.1 -214.1 256.6 -156 267 -110.6C277.4 -65.2 300.7 -32.6 324 0L0 0Z" fill="#4d53b3"></path></g></svg>