<svg id="visual" viewBox="0 0 540 960" width="540" height="960" xmlns="http://www.w3.org/2000/svg" xmlns:xlink="http://www.w3.org/1999/xlink" version="1.1"><rect x="0" y="0" width="540" height="960" fill="#c3d4ee"></rect><defs><linearGradient id="grad1_0" x1="0%" y1="0%" x2="100%" y2="100%"><stop offset="30%" stop-color="#c3d4ee" stop-opacity="1"></stop><stop offset="70%" stop-color="#c3d4ee" stop-opacity="1"></stop></linearGradient></defs><defs><linearGradient id="grad2_0" x1="0%" y1="0%" x2="100%" y2="100%"><stop offset="30%" stop-color="#c3d4ee" stop-opacity="1"></stop><stop offset="70%" stop-color="#c3d4ee" stop-opacity="1"></stop></linearGradient></defs><g transform="translate(540, 0)"><path d="M0 162C-23.3 161.7 -46.6 161.5 -62 149.7C-77.4 137.9 -84.8 114.5 -99 99C-113.2 83.4 -134.3 75.7 -146 60.5C-157.6 45.3 -159.8 22.6 -162 0L0 0Z" fill="#4d53b3"></path></g><g transform="translate(0, 960)"><path d="M0 -162C23.5 -162.1 47.1 -162.2 62 -149.7C76.9 -137.1 83.3 -111.9 95.5 -95.5C107.6 -79 125.6 -71.5 137.7 -57C149.7 -42.6 155.9 -21.3 162 0L0 0Z" fill="#4d53b3"></path></g></svg>