<svg id="visual" viewBox="0 0 1920 1080" width="1920" height="1080" xmlns="http://www.w3.org/2000/svg" xmlns:xlink="http://www.w3.org/1999/xlink" version="1.1"><rect x="0" y="0" width="1920" height="1080" fill="#4d53b3"></rect><defs><linearGradient id="grad1_0" x1="43.8%" y1="0%" x2="100%" y2="100%"><stop offset="14.444444444444446%" stop-color="#4d53b3" stop-opacity="1"></stop><stop offset="85.55555555555554%" stop-color="#4d53b3" stop-opacity="1"></stop></linearGradient></defs><defs><linearGradient id="grad2_0" x1="0%" y1="0%" x2="56.3%" y2="100%"><stop offset="14.444444444444446%" stop-color="#4d53b3" stop-opacity="1"></stop><stop offset="85.55555555555554%" stop-color="#4d53b3" stop-opacity="1"></stop></linearGradient></defs><g transform="translate(1920, 0)"><path d="M0 324C-32 294.3 -64 264.6 -104.9 253.1C-145.7 241.7 -195.4 248.5 -229.1 229.1C-262.8 209.7 -280.6 164.2 -293.8 121.7C-307 79.2 -315.5 39.6 -324 0L0 0Z" fill="#c3d4ee"></path></g><g transform="translate(0, 1080)"><path d="M0 -324C42.8 -320.8 85.7 -317.5 124 -299.3C162.3 -281.1 196.1 -248 211.4 -211.4C226.7 -174.9 223.6 -134.9 239.3 -99.1C255 -63.3 289.5 -31.7 324 0L0 0Z" fill="#c3d4ee"></path></g></svg>