<svg id="visual" viewBox="0 0 1920 1080" width="1920" height="1080" xmlns="http://www.w3.org/2000/svg" xmlns:xlink="http://www.w3.org/1999/xlink" version="1.1"><rect x="0" y="0" width="1920" height="1080" fill="#4d53b3"></rect><defs><linearGradient id="grad1_0" x1="43.8%" y1="0%" x2="100%" y2="100%"><stop offset="14.444444444444446%" stop-color="#4d53b3" stop-opacity="1"></stop><stop offset="85.55555555555554%" stop-color="#4d53b3" stop-opacity="1"></stop></linearGradient></defs><defs><linearGradient id="grad2_0" x1="0%" y1="0%" x2="56.3%" y2="100%"><stop offset="14.444444444444446%" stop-color="#4d53b3" stop-opacity="1"></stop><stop offset="85.55555555555554%" stop-color="#4d53b3" stop-opacity="1"></stop></linearGradient></defs><g transform="translate(1920, 0)"><path d="M0 216C-28.1 212.8 -56.2 209.6 -82.7 199.6C-109.2 189.6 -134.1 172.8 -151.3 151.3C-168.5 129.9 -178.1 103.7 -187.5 77.7C-197 51.7 -206.5 25.8 -216 0L0 0Z" fill="#c3d4ee"></path></g><g transform="translate(0, 1080)"><path d="M0 -216C29.7 -213.3 59.4 -210.6 81.5 -196.8C103.6 -183 118.1 -158.1 138.6 -138.6C159.1 -119.1 185.7 -104.9 199.6 -82.7C213.5 -60.5 214.7 -30.2 216 0L0 0Z" fill="#c3d4ee"></path></g></svg>