<svg id="visual" viewBox="0 0 540 960" width="540" height="960" xmlns="http://www.w3.org/2000/svg" xmlns:xlink="http://www.w3.org/1999/xlink" version="1.1"><rect x="0" y="0" width="540" height="960" fill="#4d53b3"></rect><defs><linearGradient id="grad1_0" x1="0%" y1="0%" x2="100%" y2="100%"><stop offset="30%" stop-color="#4d53b3" stop-opacity="1"></stop><stop offset="70%" stop-color="#4d53b3" stop-opacity="1"></stop></linearGradient></defs><defs><linearGradient id="grad2_0" x1="0%" y1="0%" x2="100%" y2="100%"><stop offset="30%" stop-color="#4d53b3" stop-opacity="1"></stop><stop offset="70%" stop-color="#4d53b3" stop-opacity="1"></stop></linearGradient></defs><g transform="translate(540, 0)"><path d="M0 162C-17 146.1 -34 130.1 -49.7 120.1C-65.5 110.1 -80.1 106.1 -98.3 98.3C-116.5 90.5 -138.4 79 -149.7 62C-160.9 45 -161.5 22.5 -162 0L0 0Z" fill="#c3d4ee"></path></g><g transform="translate(0, 960)"><path d="M0 -162C22.6 -161.3 45.2 -160.5 62 -149.7C78.8 -138.8 89.9 -117.9 101.1 -101.1C112.4 -84.3 123.8 -71.7 134 -55.5C144.1 -39.3 153.1 -19.7 162 0L0 0Z" fill="#c3d4ee"></path></g></svg>