<svg id="visual" viewBox="0 0 768 1024" width="768" height="1024" xmlns="http://www.w3.org/2000/svg" xmlns:xlink="http://www.w3.org/1999/xlink" version="1.1"><rect x="0" y="0" width="768" height="1024" fill="#4d53b3"></rect><defs><linearGradient id="grad1_0" x1="0%" y1="0%" x2="100%" y2="100%"><stop offset="30%" stop-color="#4d53b3" stop-opacity="1"></stop><stop offset="70%" stop-color="#4d53b3" stop-opacity="1"></stop></linearGradient></defs><defs><linearGradient id="grad2_0" x1="0%" y1="0%" x2="100%" y2="100%"><stop offset="30%" stop-color="#4d53b3" stop-opacity="1"></stop><stop offset="70%" stop-color="#4d53b3" stop-opacity="1"></stop></linearGradient></defs><g transform="translate(768, 0)"><path d="M0 128C-17.3 126.8 -34.6 125.6 -49 118.3C-63.4 110.9 -74.9 97.3 -84.1 84.1C-93.4 71 -100.2 58.3 -107.2 44.4C-114.1 30.4 -121 15.2 -128 0L0 0Z" fill="#c3d4ee"></path></g><g transform="translate(0, 1024)"><path d="M0 -128C15.8 -121.9 31.7 -115.9 44.8 -108.1C57.9 -100.3 68.3 -90.8 81.3 -81.3C94.4 -71.9 110 -62.5 118.3 -49C126.5 -35.4 127.2 -17.7 128 0L0 0Z" fill="#c3d4ee"></path></g></svg>