<svg id="visual" viewBox="0 0 300 100" width="300" height="100" xmlns="http://www.w3.org/2000/svg" xmlns:xlink="http://www.w3.org/1999/xlink" version="1.1"><rect x="0" y="0" width="300" height="100" fill="#FDFEFF"></rect><defs><linearGradient id="grad1_0" x1="66.7%" y1="0%" x2="100%" y2="100%"><stop offset="-10%" stop-color="#fdfeff" stop-opacity="1"></stop><stop offset="110%" stop-color="#fdfeff" stop-opacity="1"></stop></linearGradient></defs><defs><linearGradient id="grad2_0" x1="0%" y1="0%" x2="33.3%" y2="100%"><stop offset="-10%" stop-color="#fdfeff" stop-opacity="1"></stop><stop offset="110%" stop-color="#fdfeff" stop-opacity="1"></stop></linearGradient></defs><g transform="translate(300, 0)"><path d="M0 66C-3 63.8 -6 61.6 -6.8 55.6C-7.5 49.6 -6.1 39.8 -12.4 50.5C-18.8 61.2 -32.8 92.3 -35.5 93.5C-38.1 94.7 -29.3 66.1 -31.6 60.2C-33.9 54.3 -47.3 71.1 -47.7 69.1C-48.1 67.2 -35.6 46.6 -38.5 43.4C-41.3 40.3 -59.7 54.6 -59.9 53C-60.1 51.5 -42.2 34 -45.3 31.2C-48.4 28.5 -72.5 40.5 -78.8 41.4C-85.1 42.2 -73.5 31.8 -69.2 26.2C-64.9 20.7 -68 19.9 -74.8 18.4C-81.6 16.9 -92.1 14.6 -94.3 11.5C-96.5 8.3 -90.2 4.1 -84 0L0 0Z" fill="#25D366"></path></g><g transform="translate(0, 100)"><path d="M0 -71C2.5 -66.2 4.9 -61.5 7.1 -58.6C9.3 -55.7 11.1 -54.6 13.4 -54.4C15.7 -54.1 18.4 -54.6 20.9 -55.2C23.5 -55.7 25.9 -56.4 31.6 -60.2C37.3 -64 46.2 -70.9 45.4 -65.8C44.7 -60.8 34.1 -43.8 37.8 -42.7C41.5 -41.6 59.3 -56.4 67.4 -59.7C75.4 -62.9 73.7 -54.6 65.8 -45.4C58 -36.3 43.9 -26.3 47.8 -25.1C51.7 -23.9 73.6 -31.6 87 -33C100.3 -34.4 105.2 -29.6 97.1 -23.9C89 -18.3 67.9 -11.7 62.5 -7.6C57.2 -3.5 67.6 -1.7 78 0L0 0Z" fill="#25D366"></path></g></svg>