<svg id="visual" viewBox="0 0 540 960" width="540" height="960" xmlns="http://www.w3.org/2000/svg" xmlns:xlink="http://www.w3.org/1999/xlink" version="1.1"><rect x="0" y="0" width="540" height="960" fill="#4d53b3"></rect><defs><linearGradient id="grad1_0" x1="0%" y1="0%" x2="100%" y2="100%"><stop offset="30%" stop-color="#4d53b3" stop-opacity="1"></stop><stop offset="70%" stop-color="#4d53b3" stop-opacity="1"></stop></linearGradient></defs><defs><linearGradient id="grad2_0" x1="0%" y1="0%" x2="100%" y2="100%"><stop offset="30%" stop-color="#4d53b3" stop-opacity="1"></stop><stop offset="70%" stop-color="#4d53b3" stop-opacity="1"></stop></linearGradient></defs><g transform="translate(540, 0)"><path d="M0 108C-12.4 102 -24.8 96 -37.9 91.5C-51 86.9 -64.7 83.7 -75.7 75.7C-86.6 67.6 -94.8 54.7 -99.8 41.3C-104.7 27.9 -106.4 14 -108 0L0 0Z" fill="#c3d4ee"></path></g><g transform="translate(0, 960)"><path d="M0 -108C14.6 -107 29.1 -105.9 41.3 -99.8C53.5 -93.6 63.4 -82.4 71.4 -71.4C79.5 -60.4 85.7 -49.7 91.5 -37.9C97.3 -26 102.6 -13 108 0L0 0Z" fill="#c3d4ee"></path></g></svg>