<svg id="visual" viewBox="0 0 900 900" width="900" height="900" xmlns="http://www.w3.org/2000/svg" xmlns:xlink="http://www.w3.org/1999/xlink" version="1.1"><rect x="0" y="0" width="900" height="900" fill="#4d53b3"></rect><defs><linearGradient id="grad1_0" x1="0%" y1="0%" x2="100%" y2="100%"><stop offset="30%" stop-color="#4d53b3" stop-opacity="1"></stop><stop offset="70%" stop-color="#4d53b3" stop-opacity="1"></stop></linearGradient></defs><defs><linearGradient id="grad2_0" x1="0%" y1="0%" x2="100%" y2="100%"><stop offset="30%" stop-color="#4d53b3" stop-opacity="1"></stop><stop offset="70%" stop-color="#4d53b3" stop-opacity="1"></stop></linearGradient></defs><g transform="translate(900, 0)"><path d="M0 190.9C-20.5 171 -40.9 151.2 -56.6 136.7C-72.4 122.3 -83.4 113.3 -105.4 105.4C-127.3 97.4 -160.3 90.5 -176.4 73.1C-192.5 55.7 -191.7 27.8 -190.9 0L0 0Z" fill="#c3d4ee"></path></g><g transform="translate(0, 900)"><path d="M0 -190.9C25.1 -188.4 50.2 -185.9 73.1 -176.4C95.9 -166.8 116.6 -150.2 130.8 -130.8C145 -111.4 152.7 -89.2 161.7 -67C170.6 -44.7 180.8 -22.4 190.9 0L0 0Z" fill="#c3d4ee"></path></g></svg>